# xmcd
#
# Track frame offsets: 
#        150
#        15699
#        32209
#        43888
#        64876
#        82028
#        102359
#        126188
#        144180
#        164476
#        185567
#        199811
#        213931
#
# Disc length: 3183 seconds
#
# Revision: 1
# Processed by: cddbd v1.5.2PL0 Copyright (c) Steve Scherf et al.
# Submitted via: ExactAudioCopy v0.99pb5
#
DISCID=be0c6d0d
DTITLE=Mastodon - The Hunter
DYEAR=2011
DGENRE=Heavy Metal
TTITLE0=Black Tongue
TTITLE1=Curl Of The Burl
TTITLE2=Blasteroid
TTITLE3=Stargasm
TTITLE4=Octopus Has No Friends
TTITLE5=All The Heavy Lifting
TTITLE6=The Hunter
TTITLE7=Dry Bone Valley
TTITLE8=Thickening
TTITLE9=Creature Lives
TTITLE10=Spectrelight
TTITLE11=Bedazzled Fingernails
TTITLE12=The Sparrow
EXTD=
EXTT0=
EXTT1=
EXTT2=
EXTT3=
EXTT4=
EXTT5=
EXTT6=
EXTT7=
EXTT8=
EXTT9=
EXTT10=
EXTT11=
EXTT12=
PLAYORDER=
